<svg xmlns="http://www.w3.org/2000/svg" width="609.937" height="610" viewBox="0 0 609.937 610">
  <g id="swirl-3" transform="translate(-55.1 -55.1)">
    <g id="Group_267" data-name="Group 267" transform="translate(55.1 55.1)">
      <path id="Path_12275" data-name="Path 12275" d="M712.792,519.3a12.892,12.892,0,1,0,12.892,12.892A12.909,12.909,0,0,0,712.792,519.3Z" transform="translate(-294.407 -227.38)" fill="#fee881"/>
      <path id="Path_12276" data-name="Path 12276" d="M697.192,618.583A12.892,12.892,0,1,0,684.3,605.692,12.909,12.909,0,0,0,697.192,618.583Z" transform="translate(-288.617 -254.659)" fill="#fee881"/>
      <path id="Path_12277" data-name="Path 12277" d="M665.984,666.392a12.892,12.892,0,1,0-12.892,12.892A12.909,12.909,0,0,0,665.984,666.392Z" transform="translate(-272.25 -277.187)" fill="#fee881"/>
      <path id="Path_12278" data-name="Path 12278" d="M587.992,716.883A12.892,12.892,0,1,0,575.1,703.992,12.909,12.909,0,0,0,587.992,716.883Z" transform="translate(-248.09 -291.141)" fill="#fee881"/>
      <path id="Path_12279" data-name="Path 12279" d="M513.392,698.9a12.892,12.892,0,1,0,12.892,12.892A12.909,12.909,0,0,0,513.392,698.9Z" transform="translate(-220.403 -294.036)" fill="#fee881"/>
      <path id="Path_12280" data-name="Path 12280" d="M441.929,701.458A12.829,12.829,0,1,0,429.1,688.629,12.842,12.842,0,0,0,441.929,701.458Z" transform="translate(-193.904 -285.463)" fill="#fee881"/>
      <path id="Path_12281" data-name="Path 12281" d="M386.229,625.6a12.829,12.829,0,1,0,12.829,12.829A12.842,12.842,0,0,0,386.229,625.6Z" transform="translate(-173.232 -266.832)" fill="#fee881"/>
      <path id="Path_12282" data-name="Path 12282" d="M355.629,582.558A12.829,12.829,0,1,0,342.8,569.729a12.842,12.842,0,0,0,12.829,12.829Z" transform="translate(-161.875 -241.335)" fill="#fee881"/>
      <path id="Path_12283" data-name="Path 12283" d="M342.9,494.729A12.829,12.829,0,1,0,355.729,481.9,12.8,12.8,0,0,0,342.9,494.729Z" transform="translate(-161.912 -213.5)" fill="#fee881"/>
      <path id="Path_12284" data-name="Path 12284" d="M386.229,413.3a12.829,12.829,0,1,0,12.829,12.829A12.842,12.842,0,0,0,386.229,413.3Z" transform="translate(-173.232 -188.04)" fill="#fee881"/>
      <path id="Path_12285" data-name="Path 12285" d="M441.929,363.1a12.829,12.829,0,1,0,12.829,12.829A12.842,12.842,0,0,0,441.929,363.1Z" transform="translate(-193.904 -169.409)" fill="#fee881"/>
      <path id="Path_12286" data-name="Path 12286" d="M513.429,339.9a12.829,12.829,0,1,0,12.829,12.829A12.842,12.842,0,0,0,513.429,339.9Z" transform="translate(-220.44 -160.799)" fill="#fee881"/>
      <path id="Path_12287" data-name="Path 12287" d="M575.3,360.529A12.829,12.829,0,1,0,588.129,347.7,12.842,12.842,0,0,0,575.3,360.529Z" transform="translate(-248.164 -163.694)" fill="#fee881"/>
      <path id="Path_12288" data-name="Path 12288" d="M653.092,385.1a12.892,12.892,0,1,0,12.892,12.892A12.909,12.909,0,0,0,653.092,385.1Z" transform="translate(-272.25 -177.574)" fill="#fee881"/>
      <path id="Path_12289" data-name="Path 12289" d="M684.3,458.792A12.892,12.892,0,1,0,697.192,445.9,12.909,12.909,0,0,0,684.3,458.792Z" transform="translate(-288.617 -200.139)" fill="#fee881"/>
      <path id="Path_12290" data-name="Path 12290" d="M784.984,533.342a10.942,10.942,0,1,0-10.942,10.942A10.95,10.95,0,0,0,784.984,533.342Z" transform="translate(-317.863 -228.531)" fill="#fee881"/>
      <path id="Path_12291" data-name="Path 12291" d="M773.285,607.742a10.942,10.942,0,1,0-10.942,10.942A10.95,10.95,0,0,0,773.285,607.742Z" transform="translate(-313.521 -256.143)" fill="#fee881"/>
      <path id="Path_12292" data-name="Path 12292" d="M717.2,674.842A10.942,10.942,0,1,0,728.142,663.9,10.95,10.95,0,0,0,717.2,674.842Z" transform="translate(-300.828 -281.046)" fill="#fee881"/>
      <path id="Path_12293" data-name="Path 12293" d="M664,728.142A10.942,10.942,0,1,0,674.942,717.2,10.95,10.95,0,0,0,664,728.142Z" transform="translate(-281.083 -300.828)" fill="#fee881"/>
      <path id="Path_12294" data-name="Path 12294" d="M596.9,762.342A10.942,10.942,0,1,0,607.842,751.4,10.95,10.95,0,0,0,596.9,762.342Z" transform="translate(-256.18 -313.521)" fill="#fee881"/>
      <path id="Path_12295" data-name="Path 12295" d="M533.342,763.2a10.942,10.942,0,1,0,10.942,10.942A10.95,10.95,0,0,0,533.342,763.2Z" transform="translate(-228.531 -317.9)" fill="#fee881"/>
      <path id="Path_12296" data-name="Path 12296" d="M459.016,751.6a10.816,10.816,0,1,0,10.817,10.817A10.816,10.816,0,0,0,459.016,751.6Z" transform="translate(-200.993 -313.595)" fill="#fee881"/>
      <path id="Path_12297" data-name="Path 12297" d="M391.917,717.4a10.817,10.817,0,1,0,10.816,10.817A10.816,10.816,0,0,0,391.917,717.4Z" transform="translate(-176.09 -300.902)" fill="#fee881"/>
      <path id="Path_12298" data-name="Path 12298" d="M338.791,685.781A10.691,10.691,0,1,0,328.1,675.091,10.682,10.682,0,0,0,338.791,685.781Z" transform="translate(-156.42 -281.232)" fill="#fee881"/>
      <path id="Path_12299" data-name="Path 12299" d="M304.591,597.2a10.691,10.691,0,1,0,10.691,10.691A10.682,10.682,0,0,0,304.591,597.2Z" transform="translate(-143.727 -256.292)" fill="#fee881"/>
      <path id="Path_12300" data-name="Path 12300" d="M292.791,544.281A10.691,10.691,0,1,0,282.1,533.591,10.682,10.682,0,0,0,292.791,544.281Z" transform="translate(-139.347 -228.716)" fill="#fee881"/>
      <path id="Path_12301" data-name="Path 12301" d="M304.628,448.6a10.628,10.628,0,1,0,10.628,10.628A10.615,10.615,0,0,0,304.628,448.6Z" transform="translate(-143.764 -201.141)" fill="#fee881"/>
      <path id="Path_12302" data-name="Path 12302" d="M338.828,402.656A10.628,10.628,0,1,0,328.2,392.028,10.615,10.615,0,0,0,338.828,402.656Z" transform="translate(-156.457 -176.201)" fill="#fee881"/>
      <path id="Path_12303" data-name="Path 12303" d="M392.028,349.356A10.628,10.628,0,1,0,381.4,338.728a10.615,10.615,0,0,0,10.628,10.628Z" transform="translate(-176.201 -156.42)" fill="#fee881"/>
      <path id="Path_12304" data-name="Path 12304" d="M459.128,315.156A10.628,10.628,0,1,0,448.5,304.528a10.615,10.615,0,0,0,10.628,10.628Z" transform="translate(-201.104 -143.727)" fill="#fee881"/>
      <path id="Path_12305" data-name="Path 12305" d="M533.491,303.481A10.691,10.691,0,1,0,522.8,292.791,10.682,10.682,0,0,0,533.491,303.481Z" transform="translate(-228.679 -139.347)" fill="#fee881"/>
      <path id="Path_12306" data-name="Path 12306" d="M607.891,293.9a10.691,10.691,0,1,0,10.691,10.691A10.682,10.682,0,0,0,607.891,293.9Z" transform="translate(-256.292 -143.727)" fill="#fee881"/>
      <path id="Path_12307" data-name="Path 12307" d="M664.3,338.791A10.691,10.691,0,1,0,674.991,328.1,10.682,10.682,0,0,0,664.3,338.791Z" transform="translate(-281.195 -156.42)" fill="#fee881"/>
      <circle id="Ellipse_39" data-name="Ellipse 39" cx="10.816" cy="10.816" r="10.816" transform="translate(416.498 205.01)" fill="#fee881"/>
      <path id="Path_12308" data-name="Path 12308" d="M762.417,448.2a10.816,10.816,0,1,0,10.816,10.816A10.816,10.816,0,0,0,762.417,448.2Z" transform="translate(-313.595 -200.993)" fill="#fee881"/>
      <path id="Path_12309" data-name="Path 12309" d="M835.678,526a8.678,8.678,0,1,0,8.678,8.678A8.655,8.655,0,0,0,835.678,526Z" transform="translate(-341.578 -229.867)" fill="#fee881"/>
      <path id="Path_12310" data-name="Path 12310" d="M826.178,618.257a8.678,8.678,0,1,0-8.678-8.678A8.655,8.655,0,0,0,826.178,618.257Z" transform="translate(-338.052 -257.665)" fill="#fee881"/>
      <circle id="Ellipse_40" data-name="Ellipse 40" cx="8.678" cy="8.678" r="8.678" transform="translate(461.965 387.319)" fill="#fee881"/>
      <path id="Path_12311" data-name="Path 12311" d="M754.078,732a8.678,8.678,0,1,0,8.678,8.678A8.655,8.655,0,0,0,754.078,732Z" transform="translate(-311.294 -306.321)" fill="#fee881"/>
      <path id="Path_12312" data-name="Path 12312" d="M695.978,780.1a8.678,8.678,0,1,0,8.678,8.678A8.655,8.655,0,0,0,695.978,780.1Z" transform="translate(-289.731 -324.172)" fill="#fee881"/>
      <path id="Path_12313" data-name="Path 12313" d="M627.678,812.2a8.678,8.678,0,1,0,8.678,8.678A8.655,8.655,0,0,0,627.678,812.2Z" transform="translate(-264.382 -336.086)" fill="#fee881"/>
      <path id="Path_12314" data-name="Path 12314" d="M544.9,835.078a8.678,8.678,0,1,0,8.678-8.678A8.655,8.655,0,0,0,544.9,835.078Z" transform="translate(-236.881 -341.356)" fill="#fee881"/>
      <path id="Path_12315" data-name="Path 12315" d="M469.6,830.278a8.741,8.741,0,1,0,8.741-8.678A8.669,8.669,0,0,0,469.6,830.278Z" transform="translate(-208.935 -339.574)" fill="#fee881"/>
      <path id="Path_12316" data-name="Path 12316" d="M406.541,798.3a8.679,8.679,0,1,0,8.741,8.678A8.75,8.75,0,0,0,406.541,798.3Z" transform="translate(-182.288 -330.927)" fill="#fee881"/>
      <circle id="Ellipse_41" data-name="Ellipse 41" cx="8.615" cy="8.615" r="8.615" transform="translate(175.579 442.03)" fill="#fee881"/>
      <circle id="Ellipse_42" data-name="Ellipse 42" cx="8.615" cy="8.615" r="8.615" transform="translate(143.13 407.442)" fill="#fee881"/>
      <path id="Path_12317" data-name="Path 12317" d="M254.915,636.9a8.615,8.615,0,1,0,8.615,8.615A8.588,8.588,0,0,0,254.915,636.9Z" transform="translate(-126.061 -271.026)" fill="#fee881"/>
      <path id="Path_12318" data-name="Path 12318" d="M236.29,581.079a8.49,8.49,0,1,0-8.49-8.49A8.454,8.454,0,0,0,236.29,581.079Z" transform="translate(-119.195 -244.007)" fill="#fee881"/>
      <path id="Path_12319" data-name="Path 12319" d="M236.29,505.579a8.49,8.49,0,1,0-8.49-8.49A8.454,8.454,0,0,0,236.29,505.579Z" transform="translate(-119.195 -215.987)" fill="#fee881"/>
      <path id="Path_12320" data-name="Path 12320" d="M246.5,423.99a8.49,8.49,0,1,0,8.49-8.49A8.494,8.494,0,0,0,246.5,423.99Z" transform="translate(-126.135 -188.857)" fill="#fee881"/>
      <path id="Path_12321" data-name="Path 12321" d="M291.39,366.479a8.49,8.49,0,1,0-8.49-8.49A8.454,8.454,0,0,0,291.39,366.479Z" transform="translate(-139.644 -164.362)" fill="#fee881"/>
      <path id="Path_12322" data-name="Path 12322" d="M342.99,311.479a8.49,8.49,0,1,0-8.49-8.49A8.454,8.454,0,0,0,342.99,311.479Z" transform="translate(-158.795 -143.949)" fill="#fee881"/>
      <path id="Path_12323" data-name="Path 12323" d="M406.69,271.079a8.49,8.49,0,1,0-8.49-8.49A8.454,8.454,0,0,0,406.69,271.079Z" transform="translate(-182.436 -128.956)" fill="#fee881"/>
      <path id="Path_12324" data-name="Path 12324" d="M478.39,247.779a8.49,8.49,0,1,0-8.49-8.49A8.494,8.494,0,0,0,478.39,247.779Z" transform="translate(-209.046 -120.308)" fill="#fee881"/>
      <path id="Path_12325" data-name="Path 12325" d="M553.69,242.979a8.49,8.49,0,1,0-8.49-8.49A8.494,8.494,0,0,0,553.69,242.979Z" transform="translate(-236.993 -118.527)" fill="#fee881"/>
      <circle id="Ellipse_43" data-name="Ellipse 43" cx="8.615" cy="8.615" r="8.615" transform="translate(354.743 116.214)" fill="#fee881"/>
      <circle id="Ellipse_44" data-name="Ellipse 44" cx="8.615" cy="8.615" r="8.615" transform="translate(397.632 136.464)" fill="#fee881"/>
      <circle id="Ellipse_45" data-name="Ellipse 45" cx="8.615" cy="8.615" r="8.615" transform="translate(434.169 166.65)" fill="#fee881"/>
      <path id="Path_12326" data-name="Path 12326" d="M798.415,398.331a8.615,8.615,0,1,0-8.615-8.615A8.589,8.589,0,0,0,798.415,398.331Z" transform="translate(-327.772 -176.09)" fill="#fee881"/>
      <path id="Path_12327" data-name="Path 12327" d="M826.178,468.582a8.741,8.741,0,1,0-8.678-8.741A8.669,8.669,0,0,0,826.178,468.582Z" transform="translate(-338.052 -202.069)" fill="#fee881"/>
      <path id="Path_12328" data-name="Path 12328" d="M890.4,535.9a6.6,6.6,0,1,0,6.6-6.6A6.6,6.6,0,0,0,890.4,535.9Z" transform="translate(-365.108 -231.092)" fill="#fee881"/>
      <path id="Path_12329" data-name="Path 12329" d="M889.2,604.4a6.6,6.6,0,1,0,6.6,6.6A6.6,6.6,0,0,0,889.2,604.4Z" transform="translate(-362.213 -258.964)" fill="#fee881"/>
      <path id="Path_12330" data-name="Path 12330" d="M865.8,676.2a6.6,6.6,0,1,0,6.6,6.6A6.6,6.6,0,0,0,865.8,676.2Z" transform="translate(-353.529 -285.611)" fill="#fee881"/>
      <path id="Path_12331" data-name="Path 12331" d="M828.1,741.6a6.6,6.6,0,1,0,6.6,6.6A6.6,6.6,0,0,0,828.1,741.6Z" transform="translate(-339.537 -309.883)" fill="#fee881"/>
      <path id="Path_12332" data-name="Path 12332" d="M777.6,797.7a6.6,6.6,0,1,0,6.6,6.6A6.6,6.6,0,0,0,777.6,797.7Z" transform="translate(-320.795 -330.704)" fill="#fee881"/>
      <path id="Path_12333" data-name="Path 12333" d="M709.9,848.7a6.6,6.6,0,1,0,6.6-6.6A6.6,6.6,0,0,0,709.9,848.7Z" transform="translate(-298.118 -347.182)" fill="#fee881"/>
      <path id="Path_12334" data-name="Path 12334" d="M647.5,872.8a6.6,6.6,0,1,0,6.6,6.6A6.6,6.6,0,0,0,647.5,872.8Z" transform="translate(-272.51 -358.576)" fill="#fee881"/>
      <path id="Path_12335" data-name="Path 12335" d="M567.1,895.1a6.6,6.6,0,1,0,6.6-6.6A6.6,6.6,0,0,0,567.1,895.1Z" transform="translate(-245.121 -364.403)" fill="#fee881"/>
      <path id="Path_12336" data-name="Path 12336" d="M498.24,888.6a6.478,6.478,0,1,0,6.54,6.477A6.522,6.522,0,0,0,498.24,888.6Z" transform="translate(-217.137 -364.44)" fill="#fee881"/>
      <path id="Path_12337" data-name="Path 12337" d="M417.9,879.477A6.541,6.541,0,1,0,424.44,873,6.482,6.482,0,0,0,417.9,879.477Z" transform="translate(-189.747 -358.65)" fill="#fee881"/>
      <path id="Path_12338" data-name="Path 12338" d="M348.9,848.777a6.541,6.541,0,1,0,6.54-6.477A6.482,6.482,0,0,0,348.9,848.777Z" transform="translate(-164.139 -347.257)" fill="#fee881"/>
      <path id="Path_12339" data-name="Path 12339" d="M300.78,804.377a6.541,6.541,0,1,0-6.54,6.477A6.482,6.482,0,0,0,300.78,804.377Z" transform="translate(-141.426 -330.778)" fill="#fee881"/>
      <path id="Path_12340" data-name="Path 12340" d="M243.914,741.9a6.414,6.414,0,1,0,6.414,6.414A6.441,6.441,0,0,0,243.914,741.9Z" transform="translate(-122.795 -309.995)" fill="#fee881"/>
      <path id="Path_12341" data-name="Path 12341" d="M206.114,676.5a6.414,6.414,0,1,0,6.414,6.414A6.441,6.441,0,0,0,206.114,676.5Z" transform="translate(-108.766 -285.723)" fill="#fee881"/>
      <path id="Path_12342" data-name="Path 12342" d="M182.814,604.7a6.414,6.414,0,1,0,6.414,6.414A6.441,6.441,0,0,0,182.814,604.7Z" transform="translate(-100.119 -259.075)" fill="#fee881"/>
      <path id="Path_12343" data-name="Path 12343" d="M174.914,542.429a6.414,6.414,0,1,0-6.414-6.414,6.441,6.441,0,0,0,6.414,6.414Z" transform="translate(-97.187 -231.203)" fill="#fee881"/>
      <path id="Path_12344" data-name="Path 12344" d="M182.814,467.329a6.414,6.414,0,1,0-6.414-6.414A6.441,6.441,0,0,0,182.814,467.329Z" transform="translate(-100.119 -203.331)" fill="#fee881"/>
      <path id="Path_12345" data-name="Path 12345" d="M199.9,389.289A6.289,6.289,0,1,0,206.189,383,6.307,6.307,0,0,0,199.9,389.289Z" transform="translate(-108.84 -176.795)" fill="#fee881"/>
      <path id="Path_12346" data-name="Path 12346" d="M243.989,330.177a6.289,6.289,0,1,0-6.289-6.289,6.307,6.307,0,0,0,6.289,6.289h0Z" transform="translate(-122.869 -152.523)" fill="#fee881"/>
      <path id="Path_12347" data-name="Path 12347" d="M294.489,274.077a6.289,6.289,0,1,0-6.289-6.289A6.307,6.307,0,0,0,294.489,274.077Z" transform="translate(-141.611 -131.702)" fill="#fee881"/>
      <path id="Path_12348" data-name="Path 12348" d="M355.589,229.677a6.289,6.289,0,1,0-6.289-6.289A6.307,6.307,0,0,0,355.589,229.677Z" transform="translate(-164.288 -115.224)" fill="#fee881"/>
      <path id="Path_12349" data-name="Path 12349" d="M424.489,198.977a6.289,6.289,0,1,0-6.289-6.289A6.307,6.307,0,0,0,424.489,198.977Z" transform="translate(-189.859 -103.83)" fill="#fee881"/>
      <path id="Path_12350" data-name="Path 12350" d="M498.314,183.329a6.414,6.414,0,1,0-6.414-6.414,6.441,6.441,0,0,0,6.414,6.414h0Z" transform="translate(-217.211 -97.929)" fill="#fee881"/>
      <path id="Path_12351" data-name="Path 12351" d="M573.814,183.329a6.414,6.414,0,1,0-6.414-6.414A6.441,6.441,0,0,0,573.814,183.329Z" transform="translate(-245.232 -97.929)" fill="#fee881"/>
      <path id="Path_12352" data-name="Path 12352" d="M647.614,199.029a6.414,6.414,0,1,0-6.414-6.414A6.441,6.441,0,0,0,647.614,199.029Z" transform="translate(-272.622 -103.756)" fill="#fee881"/>
      <path id="Path_12353" data-name="Path 12353" d="M716.614,229.729a6.414,6.414,0,1,0-6.414-6.414,6.441,6.441,0,0,0,6.414,6.414Z" transform="translate(-298.23 -115.149)" fill="#fee881"/>
      <path id="Path_12354" data-name="Path 12354" d="M777.677,274.08a6.54,6.54,0,1,0-6.477-6.54A6.482,6.482,0,0,0,777.677,274.08Z" transform="translate(-320.869 -131.516)" fill="#fee881"/>
      <path id="Path_12355" data-name="Path 12355" d="M821.6,323.74a6.478,6.478,0,1,0,6.477-6.54A6.522,6.522,0,0,0,821.6,323.74Z" transform="translate(-339.574 -152.374)" fill="#fee881"/>
      <path id="Path_12356" data-name="Path 12356" d="M859.4,389.14a6.478,6.478,0,1,0,6.477-6.54A6.522,6.522,0,0,0,859.4,389.14Z" transform="translate(-353.603 -176.646)" fill="#fee881"/>
      <path id="Path_12357" data-name="Path 12357" d="M889.277,467.38a6.541,6.541,0,1,0-6.477-6.54A6.482,6.482,0,0,0,889.277,467.38Z" transform="translate(-362.288 -203.257)" fill="#fee881"/>
      <path id="Path_12358" data-name="Path 12358" d="M963,537.2a4.4,4.4,0,1,0-4.4,4.4A4.375,4.375,0,0,0,963,537.2Z" transform="translate(-388.787 -232.391)" fill="#fee881"/>
      <path id="Path_12359" data-name="Path 12359" d="M951.8,616.9a4.4,4.4,0,1,0-4.4-4.4A4.375,4.375,0,0,0,951.8,616.9Z" transform="translate(-386.263 -260.337)" fill="#fee881"/>
      <path id="Path_12360" data-name="Path 12360" d="M936.1,685.3a4.4,4.4,0,1,0-4.4,4.4A4.375,4.375,0,0,0,936.1,685.3Z" transform="translate(-378.803 -287.356)" fill="#fee881"/>
      <path id="Path_12361" data-name="Path 12361" d="M898.9,748.9a4.4,4.4,0,1,0,4.4,4.4A4.375,4.375,0,0,0,898.9,748.9Z" transform="translate(-366.63 -312.593)" fill="#fee881"/>
      <path id="Path_12362" data-name="Path 12362" d="M850.1,814.4a4.4,4.4,0,1,0,4.4-4.4A4.375,4.375,0,0,0,850.1,814.4Z" transform="translate(-350.151 -335.269)" fill="#fee881"/>
      <path id="Path_12363" data-name="Path 12363" d="M799.9,862.2a4.4,4.4,0,1,0,4.4,4.4A4.375,4.375,0,0,0,799.9,862.2Z" transform="translate(-329.888 -354.642)" fill="#fee881"/>
      <path id="Path_12364" data-name="Path 12364" d="M736.9,903.8a4.4,4.4,0,1,0,4.4,4.4A4.375,4.375,0,0,0,736.9,903.8Z" transform="translate(-306.506 -370.081)" fill="#fee881"/>
      <path id="Path_12365" data-name="Path 12365" d="M667.4,933.5a4.4,4.4,0,1,0,4.4,4.4A4.375,4.375,0,0,0,667.4,933.5Z" transform="translate(-280.712 -381.104)" fill="#fee881"/>
      <path id="Path_12366" data-name="Path 12366" d="M593.8,950.3a4.4,4.4,0,1,0,4.4,4.4A4.375,4.375,0,0,0,593.8,950.3Z" transform="translate(-253.397 -387.339)" fill="#fee881"/>
      <path id="Path_12367" data-name="Path 12367" d="M518.3,962.5a4.4,4.4,0,1,0-4.4-4.4A4.375,4.375,0,0,0,518.3,962.5Z" transform="translate(-225.376 -388.601)" fill="#fee881"/>
      <path id="Path_12368" data-name="Path 12368" d="M443.5,943.6a4.4,4.4,0,1,0,4.4,4.4A4.375,4.375,0,0,0,443.5,943.6Z" transform="translate(-197.615 -384.852)" fill="#fee881"/>
      <path id="Path_12369" data-name="Path 12369" d="M367.4,924.676a4.276,4.276,0,1,0,4.276-4.276A4.281,4.281,0,0,0,367.4,924.676Z" transform="translate(-171.005 -376.242)" fill="#fee881"/>
      <path id="Path_12370" data-name="Path 12370" d="M305.176,884.6a4.276,4.276,0,1,0,4.276,4.276A4.281,4.281,0,0,0,305.176,884.6Z" transform="translate(-146.325 -362.956)" fill="#fee881"/>
      <path id="Path_12371" data-name="Path 12371" d="M246.176,837.5a4.276,4.276,0,1,0,4.276,4.276A4.281,4.281,0,0,0,246.176,837.5Z" transform="translate(-124.428 -345.475)" fill="#fee881"/>
      <path id="Path_12372" data-name="Path 12372" d="M196.476,780.6a4.276,4.276,0,1,0,4.276,4.276A4.281,4.281,0,0,0,196.476,780.6Z" transform="translate(-105.982 -324.358)" fill="#fee881"/>
      <path id="Path_12373" data-name="Path 12373" d="M157.676,715.8a4.276,4.276,0,1,0,4.276,4.276A4.281,4.281,0,0,0,157.676,715.8Z" transform="translate(-91.582 -300.308)" fill="#fee881"/>
      <path id="Path_12374" data-name="Path 12374" d="M131.213,653.627A4.213,4.213,0,1,0,127,649.413,4.214,4.214,0,0,0,131.213,653.627Z" transform="translate(-81.785 -274.106)" fill="#fee881"/>
      <path id="Path_12375" data-name="Path 12375" d="M117.713,570.9a4.213,4.213,0,1,0,4.213,4.213A4.214,4.214,0,0,0,117.713,570.9Z" transform="translate(-76.774 -246.531)" fill="#fee881"/>
      <path id="Path_12376" data-name="Path 12376" d="M117.713,503.727a4.213,4.213,0,1,0-4.213-4.213A4.214,4.214,0,0,0,117.713,503.727Z" transform="translate(-76.774 -218.473)" fill="#fee881"/>
      <path id="Path_12377" data-name="Path 12377" d="M131.213,429.427A4.213,4.213,0,1,0,127,425.213,4.214,4.214,0,0,0,131.213,429.427Z" transform="translate(-81.785 -190.898)" fill="#fee881"/>
      <path id="Path_12378" data-name="Path 12378" d="M157.713,358.727a4.213,4.213,0,1,0-4.213-4.213A4.214,4.214,0,0,0,157.713,358.727Z" transform="translate(-91.62 -164.659)" fill="#fee881"/>
      <path id="Path_12379" data-name="Path 12379" d="M196.513,293.927a4.213,4.213,0,1,0-4.213-4.213A4.214,4.214,0,0,0,196.513,293.927Z" transform="translate(-106.02 -140.609)" fill="#fee881"/>
      <path id="Path_12380" data-name="Path 12380" d="M246.213,237.027A4.213,4.213,0,1,0,242,232.813,4.214,4.214,0,0,0,246.213,237.027Z" transform="translate(-124.465 -119.492)" fill="#fee881"/>
      <path id="Path_12381" data-name="Path 12381" d="M305.213,189.927A4.213,4.213,0,1,0,301,185.713,4.214,4.214,0,0,0,305.213,189.927Z" transform="translate(-146.362 -102.011)" fill="#fee881"/>
      <path id="Path_12382" data-name="Path 12382" d="M371.713,154.127a4.213,4.213,0,1,0-4.213-4.213A4.214,4.214,0,0,0,371.713,154.127Z" transform="translate(-171.042 -88.725)" fill="#fee881"/>
      <path id="Path_12383" data-name="Path 12383" d="M443.613,130.827a4.213,4.213,0,1,0-4.213-4.213A4.214,4.214,0,0,0,443.613,130.827Z" transform="translate(-197.727 -80.077)" fill="#fee881"/>
      <path id="Path_12384" data-name="Path 12384" d="M518.413,120.627a4.213,4.213,0,1,0-4.213-4.213A4.214,4.214,0,0,0,518.413,120.627Z" transform="translate(-225.488 -76.292)" fill="#fee881"/>
      <path id="Path_12385" data-name="Path 12385" d="M593.913,124.027a4.213,4.213,0,1,0-4.213-4.213A4.214,4.214,0,0,0,593.913,124.027Z" transform="translate(-253.508 -77.554)" fill="#fee881"/>
      <path id="Path_12386" data-name="Path 12386" d="M667.513,140.827a4.213,4.213,0,1,0-4.213-4.213A4.214,4.214,0,0,0,667.513,140.827Z" transform="translate(-280.824 -83.789)" fill="#fee881"/>
      <path id="Path_12387" data-name="Path 12387" d="M736.976,170.653a4.276,4.276,0,1,0-4.276-4.276A4.281,4.281,0,0,0,736.976,170.653Z" transform="translate(-306.58 -94.811)" fill="#fee881"/>
      <path id="Path_12388" data-name="Path 12388" d="M799.976,212.253a4.276,4.276,0,1,0-4.276-4.276A4.281,4.281,0,0,0,799.976,212.253Z" transform="translate(-329.962 -110.251)" fill="#fee881"/>
      <path id="Path_12389" data-name="Path 12389" d="M854.576,264.453a4.276,4.276,0,1,0-4.276-4.276A4.281,4.281,0,0,0,854.576,264.453Z" transform="translate(-350.226 -129.624)" fill="#fee881"/>
      <path id="Path_12390" data-name="Path 12390" d="M898.976,325.553a4.276,4.276,0,1,0-4.276-4.276A4.281,4.281,0,0,0,898.976,325.553Z" transform="translate(-366.704 -152.3)" fill="#fee881"/>
      <path id="Path_12391" data-name="Path 12391" d="M927.3,389.2a4.4,4.4,0,1,0,4.4-4.4A4.375,4.375,0,0,0,927.3,389.2Z" transform="translate(-378.803 -177.463)" fill="#fee881"/>
      <path id="Path_12392" data-name="Path 12392" d="M951.8,466.4a4.4,4.4,0,1,0-4.4-4.4A4.375,4.375,0,0,0,951.8,466.4Z" transform="translate(-386.263 -204.481)" fill="#fee881"/>
      <path id="Path_12393" data-name="Path 12393" d="M1019.927,536.2a2.321,2.321,0,0,0-2.327,2.327,2.327,2.327,0,1,0,2.327-2.327Z" transform="translate(-412.316 -233.653)" fill="#fee881"/>
      <path id="Path_12394" data-name="Path 12394" d="M1014.027,611.5a2.321,2.321,0,0,0-2.327,2.327,2.327,2.327,0,1,0,2.327-2.327Z" transform="translate(-410.127 -261.599)" fill="#fee881"/>
      <path id="Path_12395" data-name="Path 12395" d="M996.5,685.1a2.2,2.2,0,1,0,2.2,2.2A2.228,2.228,0,0,0,996.5,685.1Z" transform="translate(-403.669 -288.914)" fill="#fee881"/>
      <path id="Path_12396" data-name="Path 12396" d="M967.427,754.8a2.321,2.321,0,0,0-2.327,2.327,2.327,2.327,0,1,0,2.327-2.327Z" transform="translate(-392.832 -314.782)" fill="#fee881"/>
      <path id="Path_12397" data-name="Path 12397" d="M928.1,823.7a2.2,2.2,0,1,0-2.2-2.2A2.228,2.228,0,0,0,928.1,823.7Z" transform="translate(-378.283 -338.721)" fill="#fee881"/>
      <path id="Path_12398" data-name="Path 12398" d="M876.6,878.927a2.321,2.321,0,0,0,2.327,2.327,2.327,2.327,0,1,0-2.327-2.327Z" transform="translate(-359.987 -359.987)" fill="#fee881"/>
      <path id="Path_12399" data-name="Path 12399" d="M819.3,928.1a2.2,2.2,0,1,0,2.2-2.2A2.228,2.228,0,0,0,819.3,928.1Z" transform="translate(-338.721 -378.283)" fill="#fee881"/>
      <path id="Path_12400" data-name="Path 12400" d="M759.354,967.427a2.321,2.321,0,0,0-2.327-2.327,2.327,2.327,0,1,0,2.327,2.327Z" transform="translate(-314.745 -392.832)" fill="#fee881"/>
      <path id="Path_12401" data-name="Path 12401" d="M685.1,996.5a2.2,2.2,0,1,0,2.2-2.2A2.228,2.228,0,0,0,685.1,996.5Z" transform="translate(-288.914 -403.669)" fill="#fee881"/>
      <path id="Path_12402" data-name="Path 12402" d="M616.054,1014.027a2.321,2.321,0,0,0-2.327-2.327,2.327,2.327,0,1,0,2.327,2.327Z" transform="translate(-261.562 -410.127)" fill="#fee881"/>
      <path id="Path_12403" data-name="Path 12403" d="M538.427,1017.7a2.321,2.321,0,0,0-2.327,2.327,2.327,2.327,0,1,0,2.327-2.327Z" transform="translate(-233.615 -412.353)" fill="#fee881"/>
      <path id="Path_12404" data-name="Path 12404" d="M465.4,1014.1a2.2,2.2,0,1,0-2.2,2.2A2.228,2.228,0,0,0,465.4,1014.1Z" transform="translate(-205.743 -410.201)" fill="#fee881"/>
      <path id="Path_12405" data-name="Path 12405" d="M389.7,994.3a2.2,2.2,0,1,0,2.2,2.2A2.228,2.228,0,0,0,389.7,994.3Z" transform="translate(-178.465 -403.669)" fill="#fee881"/>
      <path id="Path_12406" data-name="Path 12406" d="M322.1,967.5a2.2,2.2,0,1,0-2.2,2.2A2.228,2.228,0,0,0,322.1,967.5Z" transform="translate(-152.56 -392.906)" fill="#fee881"/>
      <path id="Path_12407" data-name="Path 12407" d="M255.575,930.251a2.075,2.075,0,1,0-2.075-2.075A2.094,2.094,0,0,0,255.575,930.251Z" transform="translate(-128.733 -378.358)" fill="#fee881"/>
      <path id="Path_12408" data-name="Path 12408" d="M198.175,877a2.075,2.075,0,1,0,2.075,2.075A2.094,2.094,0,0,0,198.175,877Z" transform="translate(-107.43 -360.135)" fill="#fee881"/>
      <path id="Path_12409" data-name="Path 12409" d="M151.151,821.575a2.075,2.075,0,1,0-2.075,2.075A2.094,2.094,0,0,0,151.151,821.575Z" transform="translate(-89.207 -338.795)" fill="#fee881"/>
      <path id="Path_12410" data-name="Path 12410" d="M109.575,759.35a2.075,2.075,0,1,0-2.075-2.075A2.094,2.094,0,0,0,109.575,759.35Z" transform="translate(-74.547 -314.931)" fill="#fee881"/>
      <path id="Path_12411" data-name="Path 12411" d="M80.675,685.3a2.075,2.075,0,1,0,2.075,2.075A2.094,2.094,0,0,0,80.675,685.3Z" transform="translate(-63.822 -288.989)" fill="#fee881"/>
      <path id="Path_12412" data-name="Path 12412" d="M63.075,611.8a2.075,2.075,0,1,0,2.075,2.075A2.094,2.094,0,0,0,63.075,611.8Z" transform="translate(-57.29 -261.71)" fill="#fee881"/>
      <path id="Path_12413" data-name="Path 12413" d="M59.251,538.575a2.075,2.075,0,1,0-2.075,2.075A2.094,2.094,0,0,0,59.251,538.575Z" transform="translate(-55.1 -233.764)" fill="#fee881"/>
      <path id="Path_12414" data-name="Path 12414" d="M63.075,461.2a2.075,2.075,0,1,0,2.075,2.075A2.094,2.094,0,0,0,63.075,461.2Z" transform="translate(-57.29 -205.817)" fill="#fee881"/>
      <path id="Path_12415" data-name="Path 12415" d="M80.712,391.825a2.012,2.012,0,1,0-2.012-2.012A1.987,1.987,0,0,0,80.712,391.825Z" transform="translate(-63.859 -178.576)" fill="#fee881"/>
      <path id="Path_12416" data-name="Path 12416" d="M109.612,322.025a2.012,2.012,0,1,0-2.012-2.012A1.987,1.987,0,0,0,109.612,322.025Z" transform="translate(-74.585 -152.671)" fill="#fee881"/>
      <path id="Path_12417" data-name="Path 12417" d="M149.112,257.625a2.012,2.012,0,1,0-2.012-2.012A1.987,1.987,0,0,0,149.112,257.625Z" transform="translate(-89.244 -128.77)" fill="#fee881"/>
      <path id="Path_12418" data-name="Path 12418" d="M198.212,200.125a2.012,2.012,0,1,0-2.012-2.012A1.987,1.987,0,0,0,198.212,200.125Z" transform="translate(-107.467 -107.43)" fill="#fee881"/>
      <path id="Path_12419" data-name="Path 12419" d="M255.612,151.125a2.012,2.012,0,1,0-2.012-2.012A1.987,1.987,0,0,0,255.612,151.125Z" transform="translate(-128.77 -89.244)" fill="#fee881"/>
      <path id="Path_12420" data-name="Path 12420" d="M320.012,111.625A2.012,2.012,0,1,0,318,109.612,1.987,1.987,0,0,0,320.012,111.625Z" transform="translate(-152.671 -74.585)" fill="#fee881"/>
      <path id="Path_12421" data-name="Path 12421" d="M389.812,82.725a2.012,2.012,0,1,0-2.012-2.012A1.987,1.987,0,0,0,389.812,82.725Z" transform="translate(-178.576 -63.859)" fill="#fee881"/>
      <path id="Path_12422" data-name="Path 12422" d="M463.275,65.151a2.075,2.075,0,1,0-2.075-2.075A2.094,2.094,0,0,0,463.275,65.151Z" transform="translate(-205.817 -57.29)" fill="#fee881"/>
      <path id="Path_12423" data-name="Path 12423" d="M538.575,59.251a2.075,2.075,0,1,0-2.075-2.075A2.094,2.094,0,0,0,538.575,59.251Z" transform="translate(-233.764 -55.1)" fill="#fee881"/>
      <path id="Path_12424" data-name="Path 12424" d="M613.975,65.151a2.075,2.075,0,1,0-2.075-2.075A2.094,2.094,0,0,0,613.975,65.151Z" transform="translate(-261.747 -57.29)" fill="#fee881"/>
      <path id="Path_12425" data-name="Path 12425" d="M687.375,82.751a2.075,2.075,0,1,0-2.075-2.075A2.094,2.094,0,0,0,687.375,82.751Z" transform="translate(-288.989 -63.822)" fill="#fee881"/>
      <path id="Path_12426" data-name="Path 12426" d="M757.175,111.751a2.075,2.075,0,1,0-2.075-2.075A2.094,2.094,0,0,0,757.175,111.751Z" transform="translate(-314.894 -74.585)" fill="#fee881"/>
      <path id="Path_12427" data-name="Path 12427" d="M821.575,151.151a2.075,2.075,0,1,0-2.075-2.075A2.094,2.094,0,0,0,821.575,151.151Z" transform="translate(-338.795 -89.207)" fill="#fee881"/>
      <path id="Path_12428" data-name="Path 12428" d="M879.075,200.251A2.075,2.075,0,1,0,877,198.175,2.094,2.094,0,0,0,879.075,200.251Z" transform="translate(-360.135 -107.43)" fill="#fee881"/>
      <path id="Path_12429" data-name="Path 12429" d="M928.175,257.751a2.075,2.075,0,1,0-2.075-2.075A2.094,2.094,0,0,0,928.175,257.751Z" transform="translate(-378.358 -128.77)" fill="#fee881"/>
      <path id="Path_12430" data-name="Path 12430" d="M967.5,322.1a2.2,2.2,0,1,0-2.2-2.2A2.228,2.228,0,0,0,967.5,322.1Z" transform="translate(-392.906 -152.56)" fill="#fee881"/>
      <path id="Path_12431" data-name="Path 12431" d="M996.5,387.5a2.2,2.2,0,1,0,2.2,2.2A2.228,2.228,0,0,0,996.5,387.5Z" transform="translate(-403.669 -178.465)" fill="#fee881"/>
      <path id="Path_12432" data-name="Path 12432" d="M1014.1,465.4a2.2,2.2,0,1,0-2.2-2.2A2.228,2.228,0,0,0,1014.1,465.4Z" transform="translate(-410.201 -205.743)" fill="#fee881"/>
    </g>
    <path id="Path_12433" data-name="Path 12433" d="M542.078,403.6a14.778,14.778,0,1,0,14.778,14.778A14.761,14.761,0,0,0,542.078,403.6Z" transform="translate(-175.249 -129.34)" fill="#fee881"/>
    <path id="Path_12434" data-name="Path 12434" d="M458,426.172A14.775,14.775,0,1,0,478.811,428,14.821,14.821,0,0,0,458,426.172Z" transform="translate(-147.576 -136.442)" fill="#fee881"/>
    <path id="Path_12435" data-name="Path 12435" d="M408.071,497.483a14.779,14.779,0,1,0,17.105-12.011,14.773,14.773,0,0,0-17.105,12.011h0Z" transform="translate(-130.919 -159.645)" fill="#fee881"/>
    <path id="Path_12436" data-name="Path 12436" d="M415.631,584.218a14.778,14.778,0,1,0,5.408-20.187A14.8,14.8,0,0,0,415.631,584.218Z" transform="translate(-133.071 -188.147)" fill="#fee881"/>
    <path id="Path_12437" data-name="Path 12437" d="M477.283,645.808a14.762,14.762,0,1,0-8.8-18.929A14.758,14.758,0,0,0,477.283,645.808Z" transform="translate(-153.092 -208.609)" fill="#fee881"/>
    <path id="Path_12438" data-name="Path 12438" d="M563.989,653.393a14.762,14.762,0,1,0-18.929-8.8A14.706,14.706,0,0,0,563.989,653.393Z" transform="translate(-181.502 -211.415)" fill="#fee881"/>
    <path id="Path_12439" data-name="Path 12439" d="M635.326,603.418a14.777,14.777,0,1,0-20.187,5.408A14.8,14.8,0,0,0,635.326,603.418Z" transform="translate(-205.108 -195.273)" fill="#fee881"/>
    <path id="Path_12440" data-name="Path 12440" d="M657.788,519.283a14.779,14.779,0,1,0-12.011,17.105A14.773,14.773,0,0,0,657.788,519.283Z" transform="translate(-212.791 -167.735)" fill="#fee881"/>
    <path id="Path_12441" data-name="Path 12441" d="M620.987,440.372a14.775,14.775,0,1,0,1.824,20.815A14.821,14.821,0,0,0,620.987,440.372Z" transform="translate(-201.019 -141.712)" fill="#fee881"/>
  </g>
</svg>
